<svg width="18" height="18" viewBox="0 0 18 18" fill="none" xmlns="http://www.w3.org/2000/svg">
<path d="M9 2.5C10.8056 2.5 12.3403 3.13194 13.6042 4.39583C14.8681 5.65972 15.5 7.19444 15.5 9C15.5 10.8056 14.8681 12.3403 13.6042 13.6042C12.3403 14.8681 10.8056 15.5 9 15.5C7.19444 15.5 5.65972 14.8681 4.39583 13.6042C3.13194 12.3403 2.5 10.8056 2.5 9C2.5 7.19444 3.13194 5.65972 4.39583 4.39583C5.65972 3.13194 7.19444 2.5 9 2.5ZM9 14C10.3889 14 11.5694 13.5139 12.5417 12.5417C13.5139 11.5694 14 10.3889 14 9C14 7.61111 13.5139 6.43056 12.5417 5.45833C11.5694 4.48611 10.3889 4 9 4C7.61111 4 6.43056 4.48611 5.45833 5.45833C4.48611 6.43056 4 7.61111 4 9C4 10.3889 4.48611 11.5694 5.45833 12.5417C6.43056 13.5139 7.61111 14 9 14ZM8.99896 12C9.63854 12 10.2118 11.816 10.7188 11.4479C11.2257 11.0799 11.5903 10.5972 11.8125 10H6.1875C6.40972 10.5972 6.77396 11.0799 7.28021 11.4479C7.7866 11.816 8.35951 12 8.99896 12ZM6 7.49562C6 7.70687 6.07146 7.88542 6.21438 8.03125C6.35729 8.17708 6.53438 8.25 6.74563 8.25C6.95688 8.25 7.13542 8.17854 7.28125 8.03563C7.42708 7.89271 7.5 7.71563 7.5 7.50438C7.5 7.29313 7.42854 7.11458 7.28562 6.96875C7.14271 6.82292 6.96562 6.75 6.75437 6.75C6.54313 6.75 6.36458 6.82146 6.21875 6.96437C6.07292 7.10729 6 7.28437 6 7.49562ZM10.5 7.49562C10.5 7.70687 10.5715 7.88542 10.7144 8.03125C10.8573 8.17708 11.0344 8.25 11.2456 8.25C11.4569 8.25 11.6354 8.17854 11.7812 8.03563C11.9271 7.89271 12 7.71563 12 7.50438C12 7.29313 11.9285 7.11458 11.7856 6.96875C11.6427 6.82292 11.4656 6.75 11.2544 6.75C11.0431 6.75 10.8646 6.82146 10.7188 6.96437C10.5729 7.10729 10.5 7.28437 10.5 7.49562ZM0 4V1.5C0 1.08333 0.146875 0.729167 0.440625 0.4375C0.734375 0.145833 1.0875 0 1.5 0H4V1.5H1.5V4H0ZM4 18H1.5C1.08333 18 0.729167 17.8531 0.4375 17.5594C0.145833 17.2656 0 16.9125 0 16.5V14H1.5V16.5H4V18ZM14 18V16.5H16.5V14H18V16.5C18 16.9167 17.8531 17.2708 17.5594 17.5625C17.2656 17.8542 16.9125 18 16.5 18H14ZM16.5 4V1.5H14V0H16.5C16.9167 0 17.2708 0.146876 17.5625 0.440626C17.8542 0.734376 18 1.0875 18 1.5V4H16.5Z" fill="black"/>
</svg>